<?xml version="1.0" encoding="UTF-8"?>
<svg xmlns="http://www.w3.org/2000/svg" xmlns:xlink="http://www.w3.org/1999/xlink" width="567.4pt" height="251.3pt" viewBox="0 0 567.4 251.3" version="1.1">
<defs>
<clipPath id="clip1">
  <path d="M 502 0 L 567.398438 0 L 567.398438 70 L 502 70 Z M 502 0 "/>
</clipPath>
<clipPath id="clip2">
  <path d="M 502 181 L 567.398438 181 L 567.398438 251.300781 L 502 251.300781 Z M 502 181 "/>
</clipPath>
<clipPath id="clip3">
  <path d="M 0 181 L 66 181 L 66 251.300781 L 0 251.300781 Z M 0 181 "/>
</clipPath>
</defs>
<g id="surface1">
<path style="fill-rule:evenodd;fill:rgb(0%,0%,0%);fill-opacity:1;stroke-width:5;stroke-linecap:butt;stroke-linejoin:miter;stroke:rgb(0%,0%,0%);stroke-opacity:1;stroke-miterlimit:4;" d="M 2.890625 2511.476563 L 651.523438 2511.476563 L 651.523438 2436.28125 L 78.125 2436.28125 L 78.125 1815.890625 L 2.890625 1815.890625 Z M 2.890625 2511.476563 " transform="matrix(0.1,0,0,-0.1,0,251.3)"/>
<g clip-path="url(#clip1)" clip-rule="nonzero">
<path style="fill-rule:evenodd;fill:rgb(0%,0%,0%);fill-opacity:1;stroke-width:5;stroke-linecap:butt;stroke-linejoin:miter;stroke:rgb(0%,0%,0%);stroke-opacity:1;stroke-miterlimit:4;" d="M 5672.226563 2511.476563 L 5023.632813 2511.476563 L 5023.632813 2436.28125 L 5597.03125 2436.28125 L 5597.03125 1815.890625 L 5672.226563 1815.890625 Z M 5672.226563 2511.476563 " transform="matrix(0.1,0,0,-0.1,0,251.3)"/>
</g>
<g clip-path="url(#clip2)" clip-rule="nonzero">
<path style="fill-rule:evenodd;fill:rgb(0%,0%,0%);fill-opacity:1;stroke-width:5;stroke-linecap:butt;stroke-linejoin:miter;stroke:rgb(0%,0%,0%);stroke-opacity:1;stroke-miterlimit:4;" d="M 5672.226563 2.765625 L 5023.632813 2.765625 L 5023.632813 78 L 5597.03125 78 L 5597.03125 698.351563 L 5672.226563 698.351563 Z M 5672.226563 2.765625 " transform="matrix(0.1,0,0,-0.1,0,251.3)"/>
</g>
<g clip-path="url(#clip3)" clip-rule="nonzero">
<path style="fill-rule:evenodd;fill:rgb(0%,0%,0%);fill-opacity:1;stroke-width:5;stroke-linecap:butt;stroke-linejoin:miter;stroke:rgb(0%,0%,0%);stroke-opacity:1;stroke-miterlimit:4;" d="M 2.890625 2.765625 L 651.523438 2.765625 L 651.523438 78 L 78.125 78 L 78.125 698.351563 L 2.890625 698.351563 Z M 2.890625 2.765625 " transform="matrix(0.1,0,0,-0.1,0,251.3)"/>
</g>
<path style=" stroke:none;fill-rule:evenodd;fill:rgb(92.96875%,10.984802%,14.109802%);fill-opacity:1;" d="M 41.515625 65.691406 L 51.335938 64.53125 C 51.792969 71.695313 53.738281 75.277344 57.160156 75.277344 C 58.503906 75.277344 59.617188 74.660156 60.476563 73.425781 C 61.339844 72.195313 61.773438 70.636719 61.773438 68.742188 C 61.773438 66.703125 61.296875 65.101563 60.34375 63.914063 C 59.390625 62.722656 57.71875 61.636719 55.34375 60.652344 C 51.957031 59.230469 49.402344 57.601563 47.664063 55.78125 C 45.933594 53.960938 44.621094 51.507813 43.742188 48.410156 C 43.089844 46.148438 42.765625 43.621094 42.765625 40.828125 C 42.765625 38.394531 43.058594 36.03125 43.648438 33.742188 C 44.238281 31.453125 45.042969 29.527344 46.066406 27.972656 C 47.382813 26.046875 48.898438 24.652344 50.609375 23.757813 C 52.324219 22.863281 54.4375 22.421875 56.9375 22.421875 C 61.253906 22.421875 64.523438 23.933594 66.734375 26.945313 C 68.949219 29.953125 70.261719 34.695313 70.667969 41.1875 L 60.980469 42.359375 C 60.742188 39.511719 60.214844 37.441406 59.414063 36.121094 C 58.605469 34.800781 57.441406 34.136719 55.910156 34.136719 C 54.796875 34.136719 53.929688 34.578125 53.285156 35.472656 C 52.640625 36.355469 52.316406 37.558594 52.316406 39.085938 C 52.316406 40.378906 52.609375 41.363281 53.199219 42.066406 C 53.789063 42.769531 54.894531 43.476563 56.496094 44.195313 C 58.605469 45.0625 60.371094 45.871094 61.804688 46.648438 C 63.226563 47.425781 64.453125 48.246094 65.484375 49.144531 C 66.519531 50.023438 67.402344 50.964844 68.148438 51.933594 C 68.910156 52.988281 69.5625 54.253906 70.105469 55.722656 C 70.648438 57.175781 71.070313 58.804688 71.355469 60.59375 C 71.644531 62.386719 71.789063 64.203125 71.789063 66.027344 C 71.789063 69.066406 71.457031 71.945313 70.78125 74.632813 C 70.105469 77.316406 69.164063 79.621094 67.964844 81.503906 C 67.054688 82.910156 66.0625 84.070313 64.988281 84.980469 C 63.910156 85.90625 62.707031 86.566406 61.378906 86.992188 C 60.058594 87.40625 58.605469 87.609375 57.023438 87.609375 C 52.046875 87.609375 48.410156 86.023438 46.109375 82.839844 C 44.859375 81.089844 43.828125 78.742188 42.988281 75.789063 C 42.492188 73.953125 42.152344 72.398438 41.964844 71.109375 C 41.785156 69.816406 41.628906 68.007813 41.515625 65.691406 Z M 75.574219 55.105469 C 75.574219 49.996094 75.960938 45.398438 76.730469 41.273438 C 77.507813 37.164063 78.648438 33.710938 80.15625 30.910156 C 81.660156 28.117188 83.484375 26.003906 85.628906 24.566406 C 87.765625 23.140625 90.203125 22.421875 92.953125 22.421875 C 95.664063 22.421875 98.101563 23.140625 100.261719 24.59375 C 102.425781 26.035156 104.226563 28.117188 105.671875 30.835938 C 107.121094 33.535156 108.234375 36.898438 108.996094 40.890625 C 109.765625 44.886719 110.144531 49.453125 110.144531 54.589844 C 110.144531 58.363281 109.972656 61.800781 109.621094 64.867188 C 109.277344 67.9375 108.746094 70.664063 108.054688 73.089844 C 107.355469 75.511719 106.453125 77.699219 105.347656 79.652344 C 103.828125 82.414063 102.0625 84.425781 100.027344 85.703125 C 97.992188 86.980469 95.609375 87.609375 92.859375 87.609375 C 90.039063 87.609375 87.609375 86.921875 85.558594 85.523438 C 83.507813 84.128906 81.691406 81.914063 80.101563 78.890625 C 79.097656 76.964844 78.261719 74.808594 77.585938 72.414063 C 76.910156 70.019531 76.40625 67.394531 76.070313 64.546875 C 75.734375 61.695313 75.574219 58.539063 75.574219 55.105469 Z M 85.914063 55.191406 C 85.914063 67.113281 88.230469 73.074219 92.859375 73.074219 C 95.210938 73.074219 96.96875 71.59375 98.117188 68.640625 C 99.273438 65.691406 99.847656 61.242188 99.847656 55.28125 C 99.847656 51.40625 99.644531 48.261719 99.242188 45.839844 C 98.847656 43.414063 98.210938 41.496094 97.347656 40.054688 C 96.191406 38.101563 94.707031 37.132813 92.90625 37.132813 C 90.554688 37.132813 88.792969 38.617188 87.648438 41.578125 C 86.492188 44.546875 85.914063 49.085938 85.914063 55.191406 Z M 115.503906 23.480469 L 129.054688 23.480469 L 134.246094 61.886719 L 134.335938 61.886719 L 139.507813 23.480469 L 153.011719 23.480469 L 153.011719 86.554688 L 144.621094 86.554688 L 144.621094 38.453125 L 144.53125 38.453125 L 138.070313 86.554688 L 130.46875 86.554688 L 124.03125 38.453125 L 123.9375 38.453125 L 123.9375 86.554688 L 115.503906 86.554688 Z M 195.675781 76.15625 L 183.910156 76.15625 L 182.339844 86.554688 L 171.757813 86.554688 L 184.296875 23.480469 L 195.558594 23.480469 L 208.097656 86.554688 L 197.335938 86.554688 Z M 193.515625 62.503906 L 189.898438 39.863281 L 189.804688 39.863281 L 186.160156 62.503906 Z M 233.160156 23.480469 L 243.410156 23.480469 L 243.410156 61.066406 C 243.410156 64.789063 243.113281 68.257813 242.53125 71.445313 C 241.949219 74.617188 241.09375 77.363281 239.96875 79.652344 C 238.601563 82.472656 236.996094 84.511719 235.128906 85.789063 C 233.273438 87.066406 230.996094 87.699219 228.3125 87.699219 C 225.871094 87.699219 223.855469 87.449219 222.269531 86.949219 C 220.6875 86.449219 219.328125 85.628906 218.203125 84.511719 C 217.066406 83.394531 215.980469 81.78125 214.933594 79.652344 C 213.808594 77.363281 212.953125 74.617188 212.371094 71.445313 C 211.789063 68.257813 211.492188 64.789063 211.492188 61.066406 L 211.492188 23.480469 L 221.742188 23.480469 L 221.742188 61.976563 C 221.742188 65.410156 222.238281 68.113281 223.242188 70.066406 C 224.242188 72.019531 225.65625 72.988281 227.472656 72.988281 C 228.683594 72.988281 229.710938 72.5625 230.558594 71.695313 C 231.394531 70.84375 232.039063 69.578125 232.492188 67.9375 C 232.933594 66.277344 233.160156 64.296875 233.160156 61.976563 Z M 248.011719 23.480469 L 279.316406 23.480469 L 279.316406 39.070313 L 268.847656 39.070313 L 268.847656 86.554688 L 258.503906 86.554688 L 258.503906 39.070313 L 248.011719 39.070313 Z M 282.601563 55.105469 C 282.601563 49.996094 282.988281 45.398438 283.757813 41.273438 C 284.535156 37.164063 285.675781 33.710938 287.183594 30.910156 C 288.6875 28.117188 290.515625 26.003906 292.65625 24.566406 C 294.789063 23.140625 297.230469 22.421875 299.980469 22.421875 C 302.691406 22.421875 305.128906 23.140625 307.289063 24.59375 C 309.453125 26.035156 311.253906 28.117188 312.699219 30.835938 C 314.152344 33.535156 315.261719 36.898438 316.023438 40.890625 C 316.789063 44.886719 317.171875 49.453125 317.171875 54.589844 C 317.171875 58.363281 317.003906 61.800781 316.652344 64.867188 C 316.304688 67.9375 315.773438 70.664063 315.085938 73.089844 C 314.386719 75.511719 313.484375 77.699219 312.371094 79.652344 C 310.859375 82.414063 309.089844 84.425781 307.054688 85.703125 C 305.019531 86.980469 302.636719 87.609375 299.886719 87.609375 C 297.066406 87.609375 294.636719 86.921875 292.585938 85.523438 C 290.539063 84.128906 288.71875 81.914063 287.128906 78.890625 C 286.121094 76.964844 285.289063 74.808594 284.613281 72.414063 C 283.9375 70.019531 283.433594 67.394531 283.097656 64.546875 C 282.765625 61.695313 282.601563 58.539063 282.601563 55.105469 Z M 292.945313 55.191406 C 292.945313 67.113281 295.257813 73.074219 299.886719 73.074219 C 302.238281 73.074219 303.996094 71.59375 305.144531 68.640625 C 306.300781 65.691406 306.871094 61.242188 306.871094 55.28125 C 306.871094 51.40625 306.675781 48.261719 306.269531 45.839844 C 305.871094 43.414063 305.238281 41.496094 304.371094 40.054688 C 303.21875 38.101563 301.734375 37.132813 299.933594 37.132813 C 297.578125 37.132813 295.824219 38.617188 294.675781 41.578125 C 293.519531 44.546875 292.945313 49.085938 292.945313 55.191406 Z M 322.53125 23.480469 L 336.078125 23.480469 L 341.277344 61.886719 L 341.363281 61.886719 L 346.535156 23.480469 L 360.039063 23.480469 L 360.039063 86.554688 L 351.652344 86.554688 L 351.652344 38.453125 L 351.558594 38.453125 L 345.097656 86.554688 L 337.496094 86.554688 L 331.058594 38.453125 L 330.964844 38.453125 L 330.964844 86.554688 L 322.53125 86.554688 Z M 365.390625 55.105469 C 365.390625 49.996094 365.777344 45.398438 366.546875 41.273438 C 367.324219 37.164063 368.464844 33.710938 369.96875 30.910156 C 371.476563 28.117188 373.300781 26.003906 375.445313 24.566406 C 377.578125 23.140625 380.019531 22.421875 382.769531 22.421875 C 385.476563 22.421875 387.914063 23.140625 390.074219 24.59375 C 392.242188 26.035156 394.039063 28.117188 395.488281 30.835938 C 396.941406 33.535156 398.050781 36.898438 398.8125 40.890625 C 399.578125 44.886719 399.960938 49.453125 399.960938 54.589844 C 399.960938 58.363281 399.789063 61.800781 399.441406 64.867188 C 399.089844 67.9375 398.5625 70.664063 397.871094 73.089844 C 397.171875 75.511719 396.273438 77.699219 395.160156 79.652344 C 393.648438 82.414063 391.871094 84.425781 389.84375 85.703125 C 387.808594 86.980469 385.421875 87.609375 382.675781 87.609375 C 379.855469 87.609375 377.425781 86.921875 375.371094 85.523438 C 373.324219 84.128906 371.507813 81.914063 369.914063 78.890625 C 368.914063 76.964844 368.074219 74.808594 367.398438 72.414063 C 366.722656 70.019531 366.21875 67.394531 365.886719 64.546875 C 365.550781 61.695313 365.390625 58.539063 365.390625 55.105469 Z M 375.730469 55.191406 C 375.730469 67.113281 378.046875 73.074219 382.675781 73.074219 C 385.027344 73.074219 386.78125 71.59375 387.933594 68.640625 C 389.089844 65.691406 389.664063 61.242188 389.664063 55.28125 C 389.664063 51.40625 389.460938 48.261719 389.058594 45.839844 C 388.660156 43.414063 388.023438 41.496094 387.164063 40.054688 C 386.007813 38.101563 384.523438 37.132813 382.722656 37.132813 C 380.367188 37.132813 378.613281 38.617188 377.464844 41.578125 C 376.308594 44.546875 375.730469 49.085938 375.730469 55.191406 Z M 403.261719 23.480469 L 434.5625 23.480469 L 434.5625 39.070313 L 424.097656 39.070313 L 424.097656 86.554688 L 413.753906 86.554688 L 413.753906 39.070313 L 403.261719 39.070313 Z M 439.664063 23.480469 L 449.960938 23.480469 L 449.960938 86.554688 L 439.664063 86.554688 Z M 453.929688 23.480469 L 464.695313 23.480469 L 472.15625 68.933594 L 472.246094 68.933594 L 479.59375 23.480469 L 490.085938 23.480469 L 477.703125 86.554688 L 466.511719 86.554688 Z M 492.222656 55.105469 C 492.222656 49.996094 492.609375 45.398438 493.378906 41.273438 C 494.15625 37.164063 495.296875 33.710938 496.804688 30.910156 C 498.3125 28.117188 500.136719 26.003906 502.277344 24.566406 C 504.414063 23.140625 506.851563 22.421875 509.601563 22.421875 C 512.3125 22.421875 514.746094 23.140625 516.910156 24.59375 C 519.074219 26.035156 520.871094 28.117188 522.320313 30.835938 C 523.773438 33.535156 524.882813 36.898438 525.644531 40.890625 C 526.414063 44.886719 526.789063 49.453125 526.789063 54.589844 C 526.789063 58.363281 526.621094 61.800781 526.273438 64.867188 C 525.925781 67.9375 525.394531 70.664063 524.703125 73.089844 C 524.007813 75.511719 523.105469 77.699219 521.996094 79.652344 C 520.480469 82.414063 518.710938 84.425781 516.675781 85.703125 C 514.640625 86.980469 512.257813 87.609375 509.507813 87.609375 C 506.691406 87.609375 504.257813 86.921875 502.203125 85.523438 C 500.160156 84.128906 498.339844 81.914063 496.746094 78.890625 C 495.746094 76.964844 494.910156 74.808594 494.234375 72.414063 C 493.558594 70.019531 493.054688 67.394531 492.71875 64.546875 C 492.386719 61.695313 492.222656 58.539063 492.222656 55.105469 Z M 502.566406 55.191406 C 502.566406 67.113281 504.878906 73.074219 509.507813 73.074219 C 511.859375 73.074219 513.617188 71.59375 514.765625 68.640625 C 515.921875 65.691406 516.496094 61.242188 516.496094 55.28125 C 516.496094 51.40625 516.296875 48.261719 515.890625 45.839844 C 515.496094 43.414063 514.859375 41.496094 513.996094 40.054688 C 512.839844 38.101563 511.355469 37.132813 509.554688 37.132813 C 507.203125 37.132813 505.445313 38.617188 504.296875 41.578125 C 503.140625 44.546875 502.566406 49.085938 502.566406 55.191406 Z M 502.566406 55.191406 "/>
<path style=" stroke:none;fill-rule:evenodd;fill:rgb(0%,0%,0%);fill-opacity:1;" d="M 36.695313 127.871094 L 50.628906 127.871094 L 68.707031 178.117188 L 68.839844 178.117188 L 68.839844 127.871094 L 82.871094 127.871094 L 82.871094 218.71875 L 68.773438 218.71875 L 50.863281 168.851563 L 50.730469 168.851563 L 50.730469 218.71875 L 36.695313 218.71875 Z M 122.398438 203.746094 L 105.378906 203.746094 L 103.109375 218.71875 L 87.792969 218.71875 L 105.941406 127.871094 L 122.230469 127.871094 L 140.371094 218.71875 L 124.804688 218.71875 Z M 119.277344 184.078125 L 114.039063 151.46875 L 113.90625 151.46875 L 108.636719 184.078125 Z M 120.78125 104.753906 L 125.960938 104.753906 C 126.007813 105.433594 126.027344 106.320313 126.027344 107.421875 C 126.027344 110.234375 125.746094 112.769531 125.199219 115.011719 C 124.660156 117.234375 123.894531 118.945313 122.914063 120.128906 C 121.9375 121.289063 120.769531 121.886719 119.433594 121.886719 C 117.914063 121.886719 115.78125 120.785156 113.007813 118.605469 C 111.402344 117.316406 110.222656 116.683594 109.445313 116.683594 C 108.773438 116.683594 108.265625 117.0625 107.929688 117.847656 C 107.601563 118.648438 107.421875 119.941406 107.402344 121.757813 L 102.300781 121.757813 C 102.253906 121.101563 102.234375 120.257813 102.234375 119.21875 C 102.234375 114.992188 102.851563 111.539063 104.097656 108.816406 C 105.328125 106.109375 106.90625 104.753906 108.828125 104.753906 C 109.726563 104.753906 110.558594 104.96875 111.3125 105.347656 C 112.0625 105.746094 113.300781 106.636719 114.984375 108.054688 C 116.636719 109.324219 117.859375 109.980469 118.679688 109.980469 C 120.019531 109.980469 120.726563 108.246094 120.78125 104.753906 Z M 143.328125 173.417969 C 143.328125 166.0625 143.894531 159.441406 145.003906 153.496094 C 146.128906 147.578125 147.78125 142.609375 149.960938 138.570313 C 152.140625 134.550781 154.78125 131.507813 157.882813 129.433594 C 160.96875 127.382813 164.496094 126.347656 168.476563 126.347656 C 172.398438 126.347656 175.925781 127.382813 179.046875 129.476563 C 182.183594 131.550781 184.789063 134.550781 186.878906 138.464844 C 188.980469 142.355469 190.585938 147.199219 191.6875 152.949219 C 192.800781 158.703125 193.351563 165.28125 193.351563 172.679688 C 193.351563 178.117188 193.105469 183.0625 192.597656 187.484375 C 192.09375 191.902344 191.328125 195.835938 190.328125 199.328125 C 189.316406 202.816406 188.015625 205.96875 186.40625 208.78125 C 184.214844 212.753906 181.65625 215.652344 178.710938 217.492188 C 175.765625 219.332031 172.320313 220.242188 168.339844 220.242188 C 164.261719 220.242188 160.746094 219.246094 157.78125 217.238281 C 154.8125 215.230469 152.183594 212.035156 149.882813 207.679688 C 148.433594 204.910156 147.21875 201.796875 146.242188 198.355469 C 145.265625 194.90625 144.535156 191.121094 144.050781 187.019531 C 143.566406 182.914063 143.328125 178.371094 143.328125 173.417969 Z M 158.296875 173.542969 C 158.296875 190.71875 161.644531 199.304688 168.339844 199.304688 C 171.746094 199.304688 174.285156 197.164063 175.949219 192.914063 C 177.621094 188.664063 178.453125 182.261719 178.453125 173.671875 C 178.453125 168.09375 178.160156 163.566406 177.578125 160.078125 C 177.003906 156.585938 176.078125 153.816406 174.835938 151.746094 C 173.160156 148.933594 171.015625 147.535156 168.410156 147.535156 C 165.003906 147.535156 162.464844 149.671875 160.800781 153.945313 C 159.128906 158.214844 158.296875 164.746094 158.296875 173.542969 Z M 223.921875 127.871094 L 263.910156 127.871094 L 263.910156 147.28125 L 238.886719 147.28125 L 238.886719 161.746094 L 262.089844 161.746094 L 262.089844 180.273438 L 238.886719 180.273438 L 238.886719 198.164063 L 264.660156 198.164063 L 264.660156 218.71875 L 223.921875 218.71875 Z M 242.988281 103.105469 L 254.515625 103.105469 L 243.84375 121.632813 L 237.460938 121.632813 Z M 327.039063 181.648438 L 340.117188 189.027344 C 339.589844 193.152344 339.0625 196.429688 338.535156 198.839844 C 338.015625 201.246094 337.367188 203.40625 336.578125 205.3125 C 335.804688 207.214844 334.757813 209.222656 333.433594 211.316406 C 331.421875 214.546875 329.1875 216.835938 326.738281 218.191406 C 324.296875 219.566406 321.152344 220.242188 317.308594 220.242188 C 313.320313 220.242188 309.941406 219.289063 307.175781 217.367188 C 304.410156 215.441406 301.894531 212.246094 299.613281 207.785156 C 298.1875 204.910156 296.996094 201.695313 296.03125 198.183594 C 295.066406 194.671875 294.34375 190.847656 293.882813 186.679688 C 293.425781 182.492188 293.199219 177.96875 293.199219 173.039063 C 293.199219 158.027344 295.289063 146.480469 299.480469 138.421875 C 303.671875 130.363281 309.691406 126.347656 317.546875 126.347656 C 321.253906 126.347656 324.410156 127.128906 327.007813 128.695313 C 329.601563 130.257813 331.835938 132.753906 333.703125 136.136719 C 335.308594 139.015625 336.488281 141.679688 337.277344 144.132813 C 338.050781 146.5625 338.835938 150.074219 339.621094 154.640625 L 326.511719 160.097656 C 325.085938 151.554688 322.230469 147.28125 317.949219 147.28125 C 315.289063 147.28125 313.109375 148.890625 311.390625 152.105469 C 310.578125 153.691406 309.941406 155.402344 309.46875 157.265625 C 308.996094 159.105469 308.648438 161.304688 308.421875 163.839844 C 308.210938 166.378906 308.097656 169.445313 308.097656 173.039063 C 308.097656 179.238281 308.421875 184.246094 309.0625 188.054688 C 309.714844 191.882813 310.726563 194.714844 312.097656 196.554688 C 313.46875 198.394531 315.230469 199.304688 317.390625 199.304688 C 320.398438 199.304688 322.714844 197.445313 324.34375 193.722656 C 325.085938 192.074219 325.621094 190.464844 325.972656 188.902344 C 326.308594 187.335938 326.664063 184.921875 327.039063 181.648438 Z M 347.523438 127.871094 L 373.925781 127.871094 C 376.800781 127.871094 379.519531 128.441406 382.09375 129.605469 C 383.9375 130.429688 385.597656 132.121094 387.09375 134.679688 C 388.363281 136.835938 389.339844 139.480469 390.035156 142.609375 C 390.722656 145.761719 391.070313 149.078125 391.070313 152.589844 C 391.070313 161.113281 389.507813 167.839844 386.394531 172.808594 C 385.328125 174.414063 384.351563 175.578125 383.476563 176.292969 C 382.597656 177.039063 381.261719 177.757813 379.464844 178.515625 L 379.464844 178.746094 C 381.363281 179.871094 382.992188 181.539063 384.339844 183.742188 C 385.6875 185.960938 386.847656 188.859375 387.8125 192.453125 L 394.953125 218.71875 L 378.117188 218.71875 L 370.246094 190.910156 C 369.488281 188.394531 368.8125 186.53125 368.238281 185.328125 C 367.679688 184.121094 367.039063 183.253906 366.339844 182.726563 C 365.632813 182.195313 364.800781 181.917969 363.835938 181.917969 L 362.488281 181.917969 L 362.488281 218.71875 L 347.523438 218.71875 Z M 362.488281 146.269531 L 362.488281 164.664063 L 368.835938 164.664063 C 371.070313 164.664063 372.847656 163.820313 374.148438 162.148438 C 375.453125 160.480469 376.105469 158.171875 376.105469 155.253906 C 376.105469 152.1875 375.578125 149.925781 374.507813 148.46875 C 373.441406 147.007813 371.777344 146.269531 369.496094 146.269531 Z M 400.632813 127.871094 L 415.527344 127.871094 L 415.527344 218.71875 L 400.632813 218.71875 Z M 425.855469 127.871094 L 445.460938 127.871094 L 452.976563 183.191406 L 453.101563 183.191406 L 460.578125 127.871094 L 480.121094 127.871094 L 480.121094 218.71875 L 467.988281 218.71875 L 467.988281 149.441406 L 467.851563 149.441406 L 458.503906 218.71875 L 447.503906 218.71875 L 438.191406 149.441406 L 438.054688 149.441406 L 438.054688 218.71875 L 425.855469 218.71875 Z M 489.816406 127.871094 L 529.804688 127.871094 L 529.804688 147.28125 L 504.78125 147.28125 L 504.78125 161.746094 L 527.984375 161.746094 L 527.984375 180.273438 L 504.78125 180.273438 L 504.78125 198.164063 L 530.554688 198.164063 L 530.554688 218.71875 L 489.816406 218.71875 Z M 489.816406 127.871094 "/>
</g>
</svg>
