<svg viewBox="0 0 180 147" xmlns="http://www.w3.org/2000/svg" xmlns:xlink="http://www.w3.org/1999/xlink"><defs><path d="M.565 1.533S.908 19.616 1.81 23.919l4.936 9.882 3.825-3.427s-1.81-7.799-2.415-9.346A58.232 58.232 0 0 1 9.37 8.072a2.1 2.1 0 0 1 1.943-1.833s2.15 13.983 2.351 17.008c.202 3.026.269 6.723.269 6.723l5.4-.74s.78-20.701-.026-29.04L.565 1.533z" id="a"/><path d="M.77 2.089l1.44 2.468a11.861 11.861 0 0 0 7.93.471 20.175 20.175 0 0 0 8.126-2.755l.026-2.192L.769 2.09z" id="c"/><path d="M.528.269l.291 6.82s11.745 7.795 12.038 8.054c.812.714 3.441 3.02 4.738 4.416 1.298 1.396 2.888.91 4.347-.13 1.46-1.039.942-2.955-.745-4.937A97.378 97.378 0 0 0 8.834 4.621C6.577 3.259 5.234.247 1.154.246a9.02 9.02 0 0 0-.627.023z" id="e"/><path d="M4.293 2.512l-1.561.765L.838 4.402l-.327 7.496.258 16.238s2.014 1.883 9.086.94c7.074-.94 8.437-2.948 8.437-2.948s.746-8.905.91-10.073A69.437 69.437 0 0 0 20.66 5.012a6.72 6.72 0 0 0-1.136-3.96L16.93.693 4.293 2.512z" id="g"/><path d="M1.008.268l.37 6.095A6.765 6.765 0 0 0 3.183 2.09 1.955 1.955 0 0 0 2.486.71 1.966 1.966 0 0 0 1.229.255a1.76 1.76 0 0 0-.221.014z" id="i"/><path d="M.649 3.277l1.457-.309 2.098.617L3.698.394C.612 1.695.648 3.277.648 3.277z" id="k"/><path d="M1.29 1.656l-1.289.22a8.611 8.611 0 0 0 5.19 3.399 20.442 20.442 0 0 0 2.078-2.408A5.143 5.143 0 0 0 7.517.46L1.291 1.656z" id="m"/><path d="M3.697.536L.25 5.823a2.63 2.63 0 0 0 2.988 1.48 4.44 4.44 0 0 0 3.238-2.676L6.213.267l-2.516.27z" id="o"/><path d="M2.457 2.308A6.16 6.16 0 0 0 .244 7.703a5.894 5.894 0 0 0 3.161.743 20.89 20.89 0 0 0 1.488-.023c1.084-.05 1.537-.1 1.747.454.254.675-.407 1.535-1.58 1.726a3.621 3.621 0 0 1-1.936.004 6.132 6.132 0 0 0-1.587-.736 1.495 1.495 0 0 0-.455.214c-.227.15-.57-.152-.649-.526l-.07-.069s.455 2.84.67 4.23c.217 1.39.527 2.014 1.63 2.302 1.101.287 4.503-1.967 5.102-2.541a8.223 8.223 0 0 0 1.078-2.782 4.045 4.045 0 0 0 1.534-1.055s.215-1.438.574-3.476A4.074 4.074 0 0 0 8.173 1.18a6.142 6.142 0 0 0-5.716 1.126z" id="q"/><path d="M1.004 1.957s.067 3.366.18 4.107a13.647 13.647 0 0 0 3.594 4.089c.495.069 1.191-1.19 1.057-2.427a26.706 26.706 0 0 0-.675-3.19l1.214.022a10.85 10.85 0 0 0-.158-2.068A14.099 14.099 0 0 0 4.037.85L1.004 1.957z" id="s"/><path d="M.52 1.006L2.046 4.04s2.263.695 3.034-1.106L4.26.084l-3.74.921z" id="u"/><path d="M5.256 4.814C2.961 7.65.58 10.372.893 11.762c.924 3.19 2.105 6.3 3.532 9.3.476.703 4.1.264 3.998-1.183a52.424 52.424 0 0 0-1.88-7.7c1.885-2.22 8.852-7.688 6.306-10.767-.635-.77-1.308-1.088-1.998-1.088-1.895.001-3.912 2.41-5.595 4.49z" id="w"/><path d="M.823.93c-.41 1.874 2.993 3.015 5.34 5.394 2.346 2.379 3.766 1.08 3.766 1.08l.185-5.036-8.87-2.3a1.6 1.6 0 0 0-.42.861z" id="y"/><path d="M.06 1.44c-.495 1.854 2.715 2.873 5.062 5.252 2.346 2.38 3.766 1.081 3.766 1.081l.185-5.035a35.248 35.248 0 0 1-3.582-.958C4.65 1.47 2.74.6 1.411.6.745.601.226.821.06 1.44z" id="A"/><path d="M.097.928a26.53 26.53 0 0 0 .923 7.018c1.07 4.396 2.35 11.6 2.35 11.6s3.076 2.363 4.662.534L6.887.338l-6.79.59z" id="C"/><path d="M16.248.978l.027-.388-.027.388zm-.034.49l.034-.487c-.013.193-.03.402-.034.487zm-.003.04L.893 5.359c-.045 3.885.112 7.77.468 11.64a99.304 99.304 0 0 0 1.46 12.75c.632 1.46 1.904 1.744 5.4 2.52 3.497.778 11.933 2.112 11.933 2.112s1.62.45 2.508-2.51c.887-2.961 0-4.375-1.15-4.54 0 0-4.767-.56-6.343-1.02-1.58-.461-5.393-1.48-5.72-1.48 0 0 .894-11.147 1.091-13.088 0 0 2.709-2.552 4.23-4.396a9.628 9.628 0 0 0 1.431-5.707l.012-.172-.002.04z" id="E"/><path d="M1.36 3.325A5.496 5.496 0 0 0 .795 6.33S2.47 8.425 2.58 8.664c.109.24.37 3.837.664 5.036.292 1.199 1.013 1.057 1.013 1.057l1.678-4.85.392-8.954-3.68-.226S2.143 1.775 1.36 3.325z" id="G"/><path d="M2.76 1.121c-1.36.9-.76 4.819-.88 6.716C1.38 10 1 12.19.741 14.397c.34.659.72.6 2.098-1.8a9.13 9.13 0 0 0 .82-6.158C3.513 4.879 4.25.952 3.2.953c-.122 0-.267.052-.441.168z" id="I"/><path d="M.893 3.542c-.026.076 0 3.901 0 3.901A6.07 6.07 0 0 0 6.688 8.51a30.41 30.41 0 0 0 9.513-4.786l.258-3.64L.893 3.542z" id="K"/><path d="M.916 1.96c.277.362.77 1.048.77 1.048a19.092 19.092 0 0 0-.15 3.188c.15.556 3.313 1.648 3.313 1.648l2.545-2.397s-.834-2.525-.982-2.93c-.151-.408-2.375-.344-2.375-.344S2.391 1.062 1.665.59a.807.807 0 0 0-.436-.138c-.553 0-.945.68-.313 1.508z" id="M"/><path d="M1.263.923a1.853 1.853 0 0 0-.577 1.712l1.71 1.989 2.971-2.717L3.23.237h-.074c-.69 0-1.36.241-1.893.686z" id="O"/><path d="M.536 3.262C1.82 5.92 1.593 6.843 1.593 6.843s-.247 1.464.136 1.69c.953.244 1.923.411 2.903.497L6.32 6.439c-.17-.89-.387-1.77-.654-2.635A10.651 10.651 0 0 0 2.36.74a1.95 1.95 0 0 0-.814-.17c-.963 0-1.989.664-1.01 2.692z" id="Q"/><path d="M.714.976C-.027 1.606.468 2.78.468 2.78l2.498 1.214L4.189.711 2.133.3A2.69 2.69 0 0 0 .714.975z" id="S"/><path d="M.902 4.38a62.44 62.44 0 0 0 8.382 4.366l-1.65-7.525s-4.24-.51-5.527-.51C.822.712-.49 3.468.902 4.38z" id="U"/><path d="M5.561 6.762C1.255 9.286.51 10.942.68 12.752c.134 1.443.468 3.222 1.017 6.367.478 2.74.028 9.677 1.95 11.12 1.923 1.443 4.382 1.358 8.455-.481a13.61 13.61 0 0 0 6.502-4.781c.425-2.247.596-4.535.507-6.82 0 0 2.15-6.96 2.715-8.97.565-2.009 1.3-4.499-.227-5.629a32.662 32.662 0 0 0-6.11-2.641S9.866 4.237 5.56 6.762z" id="W"/><path d="M13.49.362a3.29 3.29 0 0 0-2.215 2.381c-.582 2.206-1.849 6.77-1.849 6.77S6.96 7.565 5.585 6.458a2.767 2.767 0 0 0-3.505-.09 2.637 2.637 0 0 0-.253 4.005 28.613 28.613 0 0 0 8.105 6.44c2.838 1.166 4.56-2.79 6.03-6.896 1.472-4.108 3.038-7.149.709-8.873a3.29 3.29 0 0 0-2.193-.836c-.33 0-.663.05-.988.153z" id="Y"/><path id="aa" d="M.105.418v3.15H1.25l-.1-3.16z"/><path d="M3.298 1.469A5.562 5.562 0 0 0 .03 6.449v1.209c.432.314.75.762.9 1.275.322.937-.9 1.872-.9 1.872a2.74 2.74 0 0 0 .143 1.166c.223.443.729.564 1.008 1.032.539.899.626 2.026 1.404 2.176a3.1 3.1 0 0 0 1.494-.314 6.873 6.873 0 0 1 2.233-.515 4.326 4.326 0 0 0 3.862-2.284c.345-1.341.61-2.704.79-4.078A5.563 5.563 0 0 0 5.59.973c-.776 0-1.558.163-2.292.496z" id="ac"/><path d="M9.133.605C7.98 3.125 3.664 2.548 1.903 3.27.139 3.99.356 6.762.356 6.762a6.397 6.397 0 0 1 3.884-.614c1.512.54 3.346 6.121 6.223 5.114 2.879-1.009 2.231-4.573 2.338-6.841.109-2.269-1.799-2.16-1.799-2.16A1.741 1.741 0 0 0 9.26.6c-.042 0-.085 0-.127.004z" id="ae"/><path d="M1.958 2.089a2.798 2.798 0 0 0-.917 2.445l2.14 1.563 2.904-2.555L3.804.982S3.754.96 3.658.96c-.25 0-.82.14-1.7 1.129z" id="ag"/><path d="M1.281 1.747c-1.069 1.866 1.5 2.907 2.08 3.58.58.673.825 2.05 1.437 1.47.612-.583-.52-2.632-.52-2.632s.184-.857 1.835.641c1.65 1.5 3.056 1.408 3.392.888.338-.52-.58-3.122-1.069-3.64A19.13 19.13 0 0 0 4.004.417a2.255 2.255 0 0 0-2.722 1.33z" id="ai"/></defs><g fill="none" fill-rule="evenodd"><path opacity=".6" d="M-10-1h200v150H-10z"/><path d="M-9-1h197.222v147.222H-9z"/><g transform="translate(7.661 52.093)"><mask id="b" fill="#fff"><use xlink:href="#a"/></mask><path fill="#4A5477" mask="url(#b)" d="M-24.243 58.631H44.48v-83.27h-68.723z"/></g><g transform="translate(8.702 50.009)"><mask id="d" fill="#fff"><use xlink:href="#c"/></mask><path fill="#1E1E30" mask="url(#d)" d="M-24.039 30.326H43.1V-24.75h-67.14z"/></g><g transform="translate(27.44 25.004)"><mask id="f" fill="#fff"><use xlink:href="#e"/></mask><path fill="#2C2B42" mask="url(#f)" d="M-24.281 45.25h71.886v-69.833H-24.28z"/></g><g transform="translate(8.702 23.962)"><mask id="h" fill="#fff"><use xlink:href="#g"/></mask><path fill="#2C2B42" mask="url(#h)" d="M-24.298 54.169h69.77v-78.304h-69.77z"/></g><g transform="translate(23.276 22.92)"><mask id="j" fill="#fff"><use xlink:href="#i"/></mask><path fill="#4A5477" mask="url(#j)" d="M-23.8 31.19h51.793v-55.765h-51.794z"/></g><g transform="translate(10.784 23.962)"><mask id="l" fill="#fff"><use xlink:href="#k"/></mask><path fill="#4A5477" mask="url(#l)" d="M-24.16 28.414h53.173v-52.849H-24.16z"/></g><g transform="translate(17.03 27.088)"><mask id="n" fill="#fff"><use xlink:href="#m"/></mask><path fill="#FFF" mask="url(#n)" d="M-24.807 30.104h57.18V-24.37h-57.18z"/></g><path fill="#FFCEC0" d="M14.15 21.244l.12 1.792.622 1.47 5.99.84.89-4.626z"/><g transform="translate(18.071 22.92)"><mask id="p" fill="#fff"><use xlink:href="#o"/></mask><path fill="#CFA290" mask="url(#p)" d="M-24.56 32.199h55.844v-56.761h-55.843z"/></g><g transform="translate(13.907 13.543)"><mask id="r" fill="#fff"><use xlink:href="#q"/></mask><path fill="#1C1C2D" mask="url(#r)" d="M-24.598 40.875h60.503v-64.796h-60.503z"/></g><g transform="translate(4.538 50.009)"><mask id="t" fill="#fff"><use xlink:href="#s"/></mask><path fill="#1C1C2D" mask="url(#t)" d="M-23.805 34.986h54.988V-23.98h-54.988z"/></g><g transform="translate(3.497 47.925)"><mask id="v" fill="#fff"><use xlink:href="#u"/></mask><path fill="#4A5477" mask="url(#v)" d="M-24.288 29h54.175v-53.746h-54.175z"/></g><g transform="translate(-.667 28.13)"><mask id="x" fill="#fff"><use xlink:href="#w"/></mask><path fill="#2C2B42" mask="url(#x)" d="M-23.943 46.22H38.21v-70.725h-62.153z"/></g><path d="M166.914 88.479L76.87 139.065c-24.188 12.611-39.407 6.396-44.736 3.517 0 0-22.654-14.085-26.685-16.809-4.032-2.724-7.199-15.75 1.861-22.428l142.878-36.018 16.727 21.152z" fill="#E2D8E9"/><path d="M39.888 54.129l-1.063 1.008c-1.625-.986-4.28-3.591-4.27-5.822.001-.25.008.228 0 0 2.349 2.792 4.477 4.268 5.333 4.814" fill="#2C2B42"/><path d="M37.75 44.712c.94.328 2.161 1.434 3.714 2.749 1.552 1.312 1.641 3.763 1.641 3.763l-3.217 2.905c-.856-.546-3.285-2.078-5.333-4.814-.17-4.503 2.299-4.916 3.194-4.603" fill="#D0D3E1"/><path fill="#1E1E30" d="M176.082 64.576l-1.949 2.675-6.915-6.535 9.33-2.882 1.019 2.752z"/><path d="M173.931 64.966l-.44-1.352-6.413-2.337-10.45 8.796-4.14 15.626s6.044 3.475 7.313 3.984m-69.383 31.705l-2.79-1.14-9.329-9.629 9.33-2.881 3.906 7.966z" fill="#1E1E30"/><path d="M85.012 114.87l-.44-1.352-6.413-2.337-10.448 8.796-4.142 15.625s6.045 3.476 7.315 3.985" fill="#1E1E30"/><path d="M170.036 54.127c2.892-.884 4.745-.572 4.761-.57l-.005.004s-1.854-.319-4.756.566m8.104-9.794l-.001-.005h.002a12.388 12.388 0 0 1-.105-1.435c-.05-3.158-.305-6.437-.305-6.437s-1.117-3.369-3.396-5.67c-.336 2.24-.783 3.339-.054 5.473 2.232 6.526-3.252 12.81-10.46 17.448-7.208 4.637-9.585 7.735-14.818 11.34-5.234 3.606-37.388 22.52-47.943 28.79-10.553 6.268-17.407 1.357-19.177 2.616-1.768 1.26-13.558 11.275-13.558 11.275-1.004 3.604-6.201 8.66-10.847 11.186-5.012 2.727-14.127 1.859-15.422.395-1.295-1.466-2.138-4.902-2.138-4.902-15.592-5.52-27.356-16.28-27.356-16.28s-4.051 1.297-4.952.45c-.901-.844-2.14-2.76-2.645-4.224-.293-.845-.36-2.382-.364-3.532-.982 4.478-1.157 14.01-1.157 14.01.774 6.764 3.458 10.218 17.671 19.644 14.023 9.298 22.326 10.702 30.423 10.445 1.517-.048 2.733-.226 3.714-.507-.983.282-2.2.461-3.723.51-8.097.256-16.362-1.662-30.385-10.962C6.93 114.535 4.21 111.598 3.436 104.832c0 0-.944.202-.979 3.073-.033 2.871.339 3.682 1.722 5.235.768.863 1.474 1.57 2.211 1.958 1.448.763 2.85 1.608 4.09 2.68 1.899 1.642 5.423 4.273 11.96 8.353 6.946 4.336 11.701 6.589 14.72 7.758a46.274 46.274 0 0 1 6.352 3.018c1.04.595 2.536 1.174 4.628 1.432 5.13.63 8.906 0 10.55-.34 1.012-.207 3.104-1.262 4.567-2.043a3.298 3.298 0 0 0 1.724-2.522c.392-3.322 1.884-10.989 7.503-16.735 11.828-12.1 18.778-4.002 18.005 4.62l.775.02 61.287-35.275a2.795 2.795 0 0 0 1.386-2.113c.403-3.626 2.347-13.633 11.694-20.29 10.688-7.611 10.522.846 10.522.846s2.269-2.862 2.466-4.096l.64-12.384s-.657-3.728-1.12-3.694" fill="#979EC2"/><path d="M152.489 20.555c-3.126-2.41-19.974-10.768-33.123-15.702 0 0 6.586-3.063 8.814-3.876 5.308.872 12.365 4.272 21.713 9.935 10.212 6.19 13.295 9.403 14.055 10.456-2.425.104-4.144 1.6-4.144 1.6s-4.544-.276-7.315-2.413" fill="#D5D7E5"/><path d="M17.416 85.229c.823-2.858.604-5.11.604-5.11s-1.335-2.475-3.292-3.132c7.122-6.59 13.684-11.988 13.684-11.988s4.626-4.455 7.29-7.196c2.663-2.742 17.577-16.222 23.056-21.324 5.478-5.102 10.576-8.757 26.403-18.276 15.826-9.52 32.758-16.421 38.944-17.206 1.462-.183 2.434-.29 4.075-.02-2.227.813-3.035 1.42-3.035 1.42 13.149 4.935 26.512 15.217 29.64 17.628 2.77 2.137 4.822 2.342 4.822 2.342s1.973-.415 4.4-.519c.15.208.21.317.21.317l.476 4.496s-7.88 2.287-21.792 8.725c-13.913 6.438-23.17 11.967-33.995 22.683-3.417 3.38-7.584 9.892-11.332 16.575-3.75 6.682-6.901 12.772-8.717 15.703-1.815 2.931-3.177 4.609-7.845 7.851-4.669 3.244-15.05 9.235-15.05 9.235s-3.898-2.638-9.995-.769c-6.095 1.868-12.643 5.388-12.643 5.388s-19.428-7.641-29.313-17.37c0 0 2.582-6.595 3.405-9.453" fill="#D5D7E5"/><path d="M40.72 113.637l4.066-2.414-.01-.005c2.323-1.13 6.891-3.24 11.188-4.556 6.096-1.87 9.995.769 9.995.769s9.83-6.54 14.498-9.783c4.668-3.243 5.47-4.486 7.286-7.417 1.816-2.931 5.564-9.848 9.313-16.53 3.749-6.683 7.439-13.249 10.854-16.63 10.826-10.716 21.114-16.163 35.026-22.6 13.913-6.438 21.278-8.607 21.278-8.607v-3.703c4.51 3.406 7.83 6.466 10.04 8.698-.335 2.239-.343 4.62.388 6.753 2.23 6.527-3.347 12.11-10.555 16.747-7.208 4.637-8.666 9.361-13.901 12.968-5.233 3.607-39.3 23.102-49.853 29.37-10.555 6.27-15.922.525-17.69 1.783-1.77 1.26-14.398 9.32-14.398 9.32-1.001 3.604-6.201 8.659-10.846 11.186-5.013 2.726-14.128 1.859-15.422.394-1.295-1.465-2.139-4.901-2.139-4.901s.066-.355.883-.842" fill="#AAAECD"/><path d="M153.889 83.97a2.747 2.747 0 0 1-1.366 2.138l-61.33 35.302-.776-.022.043-1.012 63.43-36.406z" fill="#7A80A7"/><path d="M13.245 97.787l-.144-.128.479-.195-.032.2-.303.123z" fill="#34354E"/><path d="M5.125 89.083c1.486-2.77 3.813-5.234 3.813-5.234l.701-1.728c1.433-1.644 3.214-3.415 5.126-5.184 1.957.656 3.292 3.13 3.292 3.13s.22 2.254-.604 5.112-3.405 9.454-3.405 9.454l-.268 1.18-.801.69-.522.43.745.93-.68.29s-4.051 1.295-4.951.45c-.902-.845-2.14-2.76-2.646-4.225-.293-.845-.36-2.382-.364-3.533.164-.75.35-1.364.564-1.762" fill="#D0D3E1"/><path d="M14.49 94.988c-.15-.142-.296-.284-.442-.427l-1.123 2.12-.365.382-.721.43.541.931s12.11 11.061 27.7 16.582c0 0-.164-.841.183-1.138a3.642 3.642 0 0 1 .51-.357c.129-.12.578-.344.838-.498l1.805-1.05s-18.92-7.452-28.926-16.975m56.394 27.432c-4.17 7.015-4.365 14.597-.438 16.936 3.93 2.34 10.493-1.452 14.663-8.466 4.17-7.015 4.365-14.596.437-16.935-3.928-2.34-10.492 1.452-14.662 8.466" fill="#2C2B42"/><path d="M78.214 118.693c-2.289 1.323-4.536 3.878-5.924 7.018-2.237 5.063-1.39 9.73 1.89 10.426 1.245.263 2.665-.085 4.068-.895 2.289-1.323 4.536-3.878 5.923-7.018 2.24-5.065 1.393-9.733-1.888-10.426-1.247-.264-2.665.084-4.069.895" fill="#B6B8CF"/><path d="M89.25 94.88c-3.059-.167 1.149-6.312 1.149-6.312l9.5-15.519s6.464-10.642 9.944-14.466c3.588-3.941 10.624-9.042 16.437-12.542 1.524-1.22 7.659-4.517 23.167-11.78l10.797 12.525-.518 2.66" fill="#2C2B42"/><path d="M161.682 48.046l-2.049 1.4s-23.19 15.579-29.067 19.655C124.69 73.178 98.978 89.23 98.978 89.23V76.774l6.724-10.41m-69.156-5.482c1.018-1.297 12.61-12.06 17.61-16.72 4.997-4.66 11.798-9.743 11.798-9.743s14.363 10.31 37.665 22.983c0 0-9.616 15.18-15.458 25.595-1.846 3.29-3 5.83-3.634 6.466 0 0-17.733-8.47-25.465-13.105-7.732-4.634-22.516-15.476-22.516-15.476m-2.61.597c-1.218 1.464 1.497 5.28 1.497 5.28 1.095 1.788 4.101 4.923 16.62 12.602 6.594 4.047 12.038 6.825 15.711 8.55 2.528 1.187 4.914 2.216 7.624 2.894 1.88.47 3.747.747 5.13.907 1.627.188 3.279-.158 4.668-1.025a3.27 3.27 0 0 0 .556-.413c.633-.636 1.788-3.176 3.634-6.467 5.842-10.416 16.326-27.193 16.326-27.193C82.4 43.942 65.306 32.337 65.306 32.337S57.72 38.798 52.722 43.46" fill="#2C2B42"/><path d="M54.155 44.162c4.998-4.662 11.536-9.93 11.536-9.93s14.626 10.498 37.928 23.17c0 0-9.616 15.179-15.458 25.594-1.846 3.292-3 5.832-3.634 6.466 0 0-17.733-8.468-25.465-13.103-7.732-4.635-22.516-15.476-22.516-15.476 1.018-1.297 12.61-12.06 17.61-16.721" fill="#AAAECD"/><path d="M40.517 127.495s1.279 2.165 1.102 2.577c-.177.412-2.12 2.18-2.933 2.356-.813.177-7.765-2.014-19.024-9.42-2.416-1.59-8.51-5.762-10.262-7.447-1.032-.99-2.747-5.49-2.812-6.344-.065-.853.706-1.701.706-1.701" fill="#7A80A7"/><path d="M132.314 66.647c-.477-.224-.554-.874-.653-1.698-.141-1.18-1.38-8.604-2.12-13.039a1184.83 1184.83 0 0 1-.55-3.308c-.403-2.47 2.087-3.94 2.198-4.003 3.026-1.711 5.809-3.197 8.27-4.418a104.58 104.58 0 0 0 3.337-1.743c3.915-2.111 5.235-2.822 7.62.5.797 1.11 2.306 3.945 2.37 4.066l.04.114c.049.257 1.205 6.324 1.205 9.37v.22l-.184.12c-.09.06-9.243 6.054-19.29 12.926l-.414.268c-.627.408-1.105.695-1.508.695a.744.744 0 0 1-.32-.07M98.978 76.774L100 88.568l.571-.388c.683-.462 9.4-6.142 25.908-16.883l.192-.125-.008-.231c-.359-8.823-.978-19.549-1.89-20.539-1.011-1.099-2.015-.753-2.399-.554-.336.212-.614.39-.859.55-3.237 2.116-8.517 6.488-11.747 10.14-3.32 3.754-10.423 15.62-10.725 16.124l-.066.112zm60.494-27.22l-10.117-15.292s2.12-.987 6.596-2.481c1.92-.64 2.959-.96 6.597 3 3.637 3.963 6.785 6.936 4.373 9.215-2.52 2.382-7.45 5.558-7.45 5.558" fill="#2C2B42"/><path d="M68.62 105.615l-2.426 1.307s-2.607-1.589-6.328-1.307c-5.278.397-12.081 3.693-19.106 7.903 0 0 .635 3.258 2.341 4.767 1.708 1.51 7.065 1.59 11.312 1.032 4.246-.555 8.135-3.494 11.35-7.149 4.045-4.598 2.858-6.553 2.858-6.553" fill="#E4E7F4"/><path d="M56.65 114.862c-.977.072-2.14-.122-3.124-.36-.985-.236-1.316-1.474-.59-2.182l1.098-1.074a3.355 3.355 0 0 1 1.353-.804l3.765-1.163a1.164 1.164 0 0 1 1.15.272l.462.442c.515.494.47 1.331-.095 1.768l-4.019 3.101z" fill="#D5D7E5"/><path d="M28.347 108.907c-.812.587-2.573.357-4.219-.823-1.646-1.18-2.36-2.672-1.83-3.485.121-.183.605-.589 1.055-.939.787-.613 2.502-.332 4.148.847 1.647 1.18 2.415 2.81 1.793 3.562-.272.33-.588.579-.947.838" fill="#2C2B42"/><path d="M22.903 104.97c-.507.593.204 1.867 1.586 2.844 1.385.977 2.916 1.289 3.423.695.506-.593-.205-1.866-1.589-2.844-1.383-.977-2.914-1.287-3.42-.694" fill="#D5D7E5"/><path d="M10.093 97.84a4.895 4.895 0 0 0 4.255-3.613 31.515 31.515 0 0 1 1.36-3.965c1.795-4.315 1.93-4.56 2.05-5.478.119-.92.777-4.6.258-5.28-.518-.678-2.844-2.718-2.844-2.718s-4.52 3.553-5.359 4.792c-.837 1.237-1.045 2.348-1.045 2.348s-1.64 2.017-2.038 2.577c-.399.558-.706 2.754-.865 3.754a7.622 7.622 0 0 0 1.197 5.35c1.437 2.158 1.681 2.364 1.681 2.364l1.35-.132z" fill="#E4E7F4"/><path d="M7.525 107.186c.877.77 2.32 1.753 3.137 2.292.379.25.615.663.64 1.118.127 2.472.635 5.091.879 6.235-1.322-.96-2.215-1.668-2.36-1.907-.472-.79-3.148-5.893-2.708-7.06.076-.2.223-.433.412-.678" fill="#1E1E30"/><path d="M48.859 112.905a1.108 1.108 0 0 0-.06-.033 1.42 1.42 0 0 1-.483-2.076c.654-.904 1.463-.132 2.508-1.067 1.271-1.138 2.825-.18 1.854.934l-1.84 1.65c-.926.78-1.264.993-1.98.592m-4.562.906c.662-1.08 2.185-1.185 3.096-.304.598.578 1.182 1.387 1.37 2.435l.05-.043c-.302.258-.564.487-.792.689-.611.54-1.485.66-2.22.307-.393-.19-.703-.412-.911-.668-.708-.875-1.107-1.573-.593-2.416" fill="#D5D7E5"/><path d="M49.154 113.235c.97-1.584 3.202-1.738 4.536-.447.877.848 1.732 2.032 2.008 3.569l.073-.062c-.44.378-.825.713-1.16 1.009a2.971 2.971 0 0 1-3.253.45c-.577-.276-1.031-.602-1.336-.978-1.04-1.283-1.623-2.306-.868-3.54M9.787 95.098c-1.13-.572-1.357-2.082-.553-3.062.527-.645 1.285-1.292 2.313-1.563l-.046-.047c.282.28.53.524.75.734a2.03 2.03 0 0 1 .486 2.188c-.157.41-.354.736-.592.965-.815.777-1.478 1.231-2.358.785M8.82 90.3c-1.657-.84-1.989-3.054-.81-4.49.772-.943 1.883-1.892 3.391-2.29l-.068-.07c.413.41.776.767 1.099 1.077a2.975 2.975 0 0 1 .71 3.208c-.227.598-.517 1.078-.866 1.413-1.193 1.14-2.166 1.805-3.455 1.152" fill="#D5D7E5"/><path d="M33.787 126.267v-.001zm-.592 1.494l.001-.001c-.038.098-.077.197-.112.292.035-.095.074-.194.111-.291zm-20.177-16.65l-.04-.004a.608.608 0 0 1 .04.005zm-.316 4.379a39.47 39.47 0 0 0-.002-.01c0 .004 0 .007.002.01l.035.253.003.023-.038-.276zm-.313-4.048v.001a.551.551 0 0 1 .09-.144c-.01.013-.022.024-.032.038a.592.592 0 0 0-.057.104l-.001.001zm22.002 13.39l-.12.278.05-.116.07-.163zm.03-1.212a.715.715 0 0 0-.06-.066l-.035-.035a.8.8 0 0 1 .095.101zm-.628 2.632c.05-.12.098-.238.147-.361l.002-.001-.15.365v-.003zm.753-1.778a.797.797 0 0 0 .063-.402v-.029a.008.008 0 0 1-.004-.002.811.811 0 0 0-.125-.348c-.008-.01-.017-.021-.024-.033a.808.808 0 0 1 .153.383.804.804 0 0 1-.063.43zm5.11 1.349c-.059-.115-.116-.225-.174-.344-1.386-2.772-2.49-5.102-3.847-6.297-1.355-1.194-4.34-2.443-10.578-5.81-6.24-3.366-10.367-6.29-13.209-8.31-1.066-.756-3.399.925-4.323 2.124.876.771 2.32 1.752 3.136 2.292.38.25.616.663.64 1.118.065 1.26.23 2.559.408 3.681.027.18.057.352.085.521l.048.283a47.326 47.326 0 0 0 .338 1.75c.274.199.563.407.87.626 3.074 2.185 7.708 5.274 11.129 7.424 2.57 1.615 5.713 3.264 8.406 4.517a75.9 75.9 0 0 0 1.495.674c2.27.99 3.997 1.577 4.393 1.426.914-.347 2.645-1.922 2.676-2.394.03-.442-.664-1.646-1.493-3.281z" fill="#1E1E30"/><path d="M60.873 125.764l-1.008.363c-1.699.794-10.266 3.347-10.266 3.347-3.377.792-3.387 1.003-4.027 1.5-1.529 1.186-3.618 3.18-3.565 3.136 0 0 4.835 1.242 10.135 1.014 3.504-.15 5.82-1.15 6.701-3.216 1.518-3.557 2.03-6.144 2.03-6.144" fill="#7A80A7"/><path d="M59.866 126.126s-3.015 1.093-6.577 2.169c-3.68 1.111-4.823 1.48-6.178 2.474-1.356.994-3.447 2.879-3.447 2.879s4.766.868 9.241.748c3.043-.083 4.534-1.356 5.298-3.22 1.318-3.21 1.663-5.05 1.663-5.05" fill="#1E1E30"/><path d="M54.692 131.004c-1.23-2.687-3.902-2.04-2.492.806 1.41 2.848 3.6 1.612 2.492-.806" fill="#AAAECD"/><path d="M6.452 112.57s-1.74-5.19-2.33-6.768c0 0-.821 1.512-.33 3.385.494 1.873 2.66 3.384 2.66 3.384" fill="#1E1E30"/><path d="M98.978 76.774s-9.18 14.912-9.91 16.328c-.73 1.417-.657 2.514 1.79 1.16 2.448-1.353 9.143-5.694 9.143-5.694v-5.604l-1.023-6.19z" fill="#2C2B42"/><path d="M156.905 57.339s-.37-.866-1.342-.69a4.18 4.18 0 0 1 .356-.186c1.337-.618 1.827.533 1.827.533.198.206.4 1.1-.49 2.095-.377.42-.968.75-1.547.896.27-.154.516-.342.706-.553.892-.996.689-1.889.49-2.095" fill="#7A80A7"/><path d="M153.96 59.314c-.274-1.133.632-2.11 1.603-2.665.972-.177 1.342.69 1.342.69.2.207.402 1.098-.49 2.094-.19.212-.437.4-.706.554-.795.203-1.57.061-1.748-.673" fill="#939AC1"/><path d="M158.965 56.176s.836-.1 1.078.65c.243.751-.02 1.232-1.06 2.175-1.04.944-2.64 1.867-3.656 2.327-1.016.46-2.03.411-2.442 0-.41-.412-.574-.84-.145-1.113.43-.274 1.766-.29 1.766-.29l3.094-1.792.145-1.137 1.22-.82z" fill="#979EC2"/><path d="M158.965 56.176l-1.22.82s.969.146-.701 1.355c-1.194.867-2.352 1.234-3.013 1.041l-1.29.823s1.135.725 3.324-.581c2.188-1.308 4.776-3.074 2.9-3.458" fill="#B4BCD8"/><path d="M124.98 78.34s-.37-.866-1.343-.69a4.32 4.32 0 0 1 .357-.185c1.337-.62 1.827.532 1.827.532.198.206.401 1.1-.49 2.095-.377.42-.968.75-1.548.897.27-.154.518-.341.707-.554.892-.996.688-1.889.49-2.094" fill="#7A80A7"/><path d="M122.036 80.315c-.276-1.132.631-2.109 1.601-2.665.973-.176 1.343.69 1.343.69.199.207.402 1.099-.49 2.095-.19.212-.437.4-.707.554-.794.202-1.568.06-1.747-.674" fill="#939AC1"/><path d="M127.04 77.178s.837-.1 1.078.65c.242.75.121 1.22-.982 2.087-1.187.93-2.718 1.954-3.733 2.414-1.016.46-2.031.412-2.443 0-.41-.41-.573-.839-.144-1.113.429-.274 1.765-.29 1.765-.29l3.094-1.791.146-1.138 1.219-.82z" fill="#979EC2"/><path d="M127.04 77.178l-1.22.819s.968.146-.7 1.356c-1.195.866-2.352 1.234-3.014 1.04l-1.29.823s1.135.726 3.325-.581c2.187-1.307 4.775-3.074 2.899-3.457" fill="#B4BCD8"/><path d="M88.874 40.436c-.316.426-.442.949-.438 1.48.002.25-.107.462-.751.625-.513.13-1.045-.161-.952-.48.047-.16.809-1.034 1.81-2.364 1.782-2.362 9.645-12.621 9.645-12.621l.231.194-9.545 13.166z" fill="#34354E"/><path d="M14.057 108.625c2.134 1.293 14.118 8.523 17.677 9.954.203.08.333.277.336.496l.063 4.277-.391.097c-1.744-.835-11.545-5.976-17.953-10.654l-.436-3.781c.114-.404.56-.476.704-.389" fill="#7A80A7"/><path d="M13.675 108.823c2.133 1.293 14.117 8.523 17.676 9.954a.539.539 0 0 1 .335.496l.056 4.175s-11.29-5.311-18.336-10.455l-.053-3.979a.213.213 0 0 1 .322-.191" fill="#D5D7E5"/><path d="M78.069 130.044c-.206.118-.412.347-.545.645l-1.47 3.322c-.251.572-.068 1.05.363.954.613-.133 1.244-.39 1.872-.753.41-.238.82-.52 1.223-.845.444-.358.673-1.063.447-1.387l-1.313-1.884c-.127-.183-.352-.183-.577-.052m3.314-3.539c-.502.29-.825 1.104-.57 1.469l1.107 1.588c.126.179.35.18.576.05.181-.104.365-.296.5-.548a14.502 14.502 0 0 0 1.202-3.007c.156-.572-.138-.923-.583-.695l-2.191 1.121c-.014.006-.027.015-.041.022m-3.122-6.819c-.41.236-.817.518-1.218.84-.449.36-.682 1.065-.455 1.393l1.17 1.678c.127.181.351.181.577.051.207-.12.413-.347.544-.645l1.347-3.05c.263-.592.057-1.071-.393-.946a6.835 6.835 0 0 0-1.572.679m-4.208 4.599a1.393 1.393 0 0 0-.5.549 14.17 14.17 0 0 0-.493 1.01c-.24.54-.435 1.068-.594 1.588-.18.592.116.967.574.732l1.922-.983.04-.02c.501-.291.824-1.106.57-1.47l-.944-1.353c-.125-.181-.349-.183-.575-.053m-1.265 6.616c-.419.242-.745.88-.644 1.3.19.787.531 1.453 1.01 1.942.132.136.336.124.54.007.208-.12.415-.35.545-.646l1.248-2.826c.292-.658.004-1.16-.51-.899l-2.15 1.1-.04.022zm9.898-11.309c-.207.12-.413.35-.544.644l-1.206 2.73c-.29.657-.004 1.163.512.898l2.195-1.123c.014-.005.025-.013.038-.02.445-.256.762-.937.631-1.359-.23-.736-.6-1.344-1.101-1.781-.135-.117-.33-.101-.525.011m-4.458 6.104c-.613.354-1.104 1.208-1.102 1.91.002.7.497.985 1.109.631.61-.351 1.102-1.207 1.101-1.909-.002-.7-.498-.984-1.108-.632" fill="#858BA8"/><path d="M159.801 72.517c-4.17 7.014-4.365 14.598-.437 16.936 3.929 2.339 10.493-1.452 14.663-8.467 4.17-7.015 4.364-14.596.437-16.935-3.928-2.34-10.493 1.452-14.663 8.466" fill="#2C2B42"/><path d="M167.133 68.79c-2.29 1.322-4.538 3.877-5.924 7.017-2.239 5.064-1.392 9.73 1.889 10.426 1.246.264 2.665-.084 4.067-.895 2.29-1.323 4.537-3.878 5.925-7.018 2.238-5.064 1.392-9.733-1.89-10.426-1.246-.263-2.665.085-4.067.895" fill="#B6B8CF"/><path d="M166.987 80.14c-.207.118-.413.347-.544.646l-1.47 3.321c-.253.573-.068 1.05.362.954.613-.133 1.244-.39 1.871-.753.411-.238.822-.52 1.223-.845.446-.358.675-1.062.448-1.386l-1.313-1.885c-.128-.183-.353-.183-.577-.052" fill="#838AA7"/><path d="M170.3 76.601c-.501.29-.824 1.104-.569 1.469l1.107 1.588c.126.18.35.18.576.05.182-.104.365-.296.5-.548.176-.327.34-.666.493-1.01.3-.679.535-1.349.71-1.997.155-.572-.138-.923-.583-.695l-2.192 1.121c-.014.006-.027.015-.041.022m-3.122-6.819c-.41.237-.817.518-1.218.84-.448.36-.682 1.065-.455 1.393l1.171 1.678c.127.182.35.182.577.051a1.41 1.41 0 0 0 .544-.645l1.347-3.05c.262-.592.055-1.071-.394-.946a6.855 6.855 0 0 0-1.572.68m-4.207 4.598a1.39 1.39 0 0 0-.5.55 14.18 14.18 0 0 0-.494 1.01 13.897 13.897 0 0 0-.594 1.587c-.18.592.116.967.575.732l1.92-.982.041-.021c.502-.291.824-1.106.57-1.47l-.944-1.353c-.125-.181-.348-.183-.574-.053m-1.266 6.616c-.418.242-.745.88-.644 1.3.191.788.53 1.453 1.01 1.942.133.136.337.125.54.007.207-.12.415-.35.545-.646l1.249-2.825c.291-.659.004-1.161-.511-.9l-2.15 1.1-.039.022m9.898-11.308c-.207.12-.413.35-.543.643l-1.207 2.731c-.29.657-.004 1.162.512.897l2.196-1.122a.673.673 0 0 0 .037-.02c.445-.257.761-.937.631-1.36-.229-.736-.6-1.343-1.101-1.78-.135-.118-.33-.102-.525.01m-4.458 6.104c-.612.354-1.104 1.208-1.102 1.91.002.701.497.986 1.11.631.61-.35 1.102-1.207 1.1-1.908-.002-.702-.498-.985-1.108-.633" fill="#858BA8"/><path d="M175.134 39.12c-3.035-3.795-10.423-13.004-11.617-14.243-1.51-1.566-3.91-2.51-3.91-2.51s2.022-1.323 4.341-1c0 0 8.165 6.493 12.445 11.2a4.909 4.909 0 0 1 1.272 2.915c.091 1.143.16 2.57.009 3.132 0 0-.362 1.238-1.241 2.132l-1.3-1.627z" fill="#F05E4F"/><path d="M174.992 38.941L164.217 25.67l-3.755 1.56s2.195.061 5.58 4.305c3.385 4.241 8.788 10.74 7.688 13.99 0 0 2.1-3.72 1.262-6.583" fill="#AAAECD"/><path d="M163.209 40.745c-.936-1.497-4.11-4.688-6.106-6.145.146-.055.293-.11.438-.162.95-.348 1.807.287 3.32 1.814a39.443 39.443 0 0 1 3.237 3.676c1.256 1.622.254 2.957-4.105 5.597l-.574-.795c1.068-.575 4.638-2.627 3.79-3.985" fill="#7A80A7"/><path d="M157.303 34.525c1.996 1.457 5.1 4.591 6.035 6.088.85 1.358-2.851 3.542-3.92 4.118l-6.2-8.576s2.165-.91 4.085-1.63" fill="#7A80A7"/><path d="M152.19 51.873c-.16-1.789-.362-3.637-.563-4.99-.315-2.11-1.136-4.024-2.32-5.797a4.588 4.588 0 0 1-.082-.116c-.636-.952-1.653-1.965-2.264-2.579 1.131-.082 1.906.204 2.957 1.505a6.8 6.8 0 0 1 .302.4c1.188 1.681 1.949 3.625 2.278 5.658.32 1.973.69 4.599.72 6.317-1.349.886-9.853 6.477-19.11 12.809l-.406.263c-.545.355-.894.543-1.037.562-.093-.162-.164-.758-.2-1.051a10.99 10.99 0 0 0-.01-.092l19.736-12.889z" fill="#596386"/><path d="M131.59 45.518c3.01-1.702 5.781-3.183 8.228-4.397 1.326-.657 2.65-1.23 4.408-1.932.816-.326 1.478-.56 2.05-.69a4.58 4.58 0 0 1 .685-.108c.61.614 1.758 1.815 2.394 2.767l.266.397a12.489 12.489 0 0 1 1.962 5.043c.222 1.432.472 3.288.655 5.3l-19.784 13.079c-.02-.151-.05-.36-.09-.626-.335-2.24-1.334-8.224-2.024-12.359-.255-1.527-.458-2.742-.55-3.307-.313-1.922 1.714-3.117 1.8-3.167" fill="#7A80A7"/><path d="M124.612 69.988c-.393-11.101-1.218-17.568-1.502-19.543.353-.044.715.121 1.068.507.548.705 1.202 8.465 1.668 19.792-14.46 9.407-22.9 14.905-25.156 16.388l-.11-1.264 24.032-15.88z" fill="#596386"/><path d="M100.58 85.868l-.773-8.903c.748-1.243 7.466-12.383 10.568-15.89 3.185-3.601 8.391-7.912 11.584-10 .241-.156.517-.334.82-.524a.96.96 0 0 1 .331-.105c.284 1.974 1.109 8.44 1.502 19.542l-24.032 15.88z" fill="#7A80A7"/><path d="M69.224 45.292L46.812 59.146l-.436-5.018S57.083 43.31 66.953 35.121l3.619 2.452-1.348 7.72" fill="#F5F5FA"/><path d="M84.526 89.463l4.937-8.76s-5.765-3.851-24.693-14.639C45.843 55.277 42.348 55.137 42.348 55.137l-5.803 5.745s21.93 18.376 47.981 28.58" fill="#7A80A7"/><path d="M89.463 80.703s-.621-1.486-3.447-5.565c-2.824-4.08-4.915-6.591-8.842-8.246-5.388-2.27-11.794.835-11.794.835l11.794 12.185 12.29.791z" fill="#7A80A7"/><path d="M80.756 67.195a2.48 2.48 0 0 0-1.256.319c-.925.533-1.436 1.702-1.44 3.29-.004 1.695.57 3.625 1.616 5.44 1.045 1.812 2.43 3.275 3.898 4.119 1.376.79 2.644.93 3.568.397 1.976-1.142 1.896-5.14-.174-8.73-1.047-1.813-2.431-3.276-3.9-4.12-.827-.476-1.615-.715-2.312-.715M85.89 82.16c-.888 0-1.86-.288-2.854-.86-1.63-.937-3.157-2.542-4.297-4.517-1.138-1.974-1.764-4.099-1.759-5.981.004-1.99.708-3.49 1.98-4.225 1.272-.735 2.921-.594 4.645.396 1.631.937 3.156 2.542 4.295 4.516 2.446 4.239 2.349 8.722-.22 10.206a3.533 3.533 0 0 1-1.79.465" fill="#7A80A7"/><path d="M9.88 83.97c.069.809.379 1.732.702 2.505.322.773 1.376.882 1.858.196l.73-1.038c.253-.36.419-.775.48-1.21l.455-3.228a.968.968 0 0 0-.373-.904l-.421-.32a.963.963 0 0 0-1.43.31L9.88 83.97z" fill="#D5D7E5"/><path d="M107.165 90.72c.953-.368 1.45-1.239 1.707-2 .85 1.727-.072 3.792-5.527 3.475-5.396-.312-6.372-2.348-6.135-4.044 2.529 3.332 8.17 3.255 9.955 2.568" fill="#2C2B42"/><path d="M107.165 90.72c-1.784.686-7.426.763-9.955-2.57.032-.231.088-.46.158-.674.581-1.779 1.939-4.463 5.381-3.17.87.228 4.016 1.598 5.728 3.787.156.2.288.411.395.627-.258.761-.754 1.632-1.707 2" fill="#D0D3E1"/><path d="M172.434 28.63v2.234c0 .144-.15.388-.26.48l.085-.107c-.094.078-.17.122-.086.21l1.08 1.154c.076.08.2.086.286.016.234-.196.372-.486.375-.793l.017-1.804-1.497-1.39zm2.427 2.336l-.033 2.47c0 .146-.15.39-.26.482l.085-.107c-.094.078-.17.122-.085.21l1.08 1.154c.075.079.2.086.284.016.236-.197.373-.486.376-.793l.017-1.904-1.464-1.528z" fill="#FFF"/><path d="M176.433 40.745l-9.76-12.089s1.493-.564 4.937 3.549l4.342 4.536 1.832 1.048s.057 1.38-1.351 2.956" fill="#F05E4F"/><path d="M105.504 56.508s-27.647-15.11-39.54-23.731l-.177-.11a.967.967 0 0 1 1.128-.007c2.87 2.041 16.607 11.562 38.367 22.736a.723.723 0 0 1 .222 1.112" fill="#AAAECD"/><g transform="translate(136.746 109.395)"><mask id="z" fill="#fff"><use xlink:href="#y"/></mask><path fill="#232335" mask="url(#z)" d="M-24.018 32.588h58.94V-24.76h-58.94z"/></g><g transform="translate(137.787 108.353)"><mask id="B" fill="#fff"><use xlink:href="#A"/></mask><path fill="#555472" mask="url(#B)" d="M-24.8 32.956h58.682v-57.184H-24.8z"/></g><g transform="translate(138.828 91.684)"><mask id="D" fill="#fff"><use xlink:href="#C"/></mask><path fill="#3D4866" mask="url(#D)" d="M-24.711 45.603H32.84v-70.095h-57.552z"/></g><g transform="translate(144.033 97.935)"><mask id="F" fill="#fff"><use xlink:href="#E"/></mask><path fill="#4A5477" mask="url(#F)" d="M-23.922 59.234h71.754v-83.48h-71.754z"/></g><g transform="translate(163.812 125.023)"><mask id="H" fill="#fff"><use xlink:href="#G"/></mask><path fill="#555472" mask="url(#H)" d="M-24.04 39.591h55.174v-63.694H-24.04z"/></g><g transform="translate(166.935 125.023)"><mask id="J" fill="#fff"><use xlink:href="#I"/></mask><path fill="#232335" mask="url(#J)" d="M-24.067 39.585h52.744v-63.461h-52.744z"/></g><g transform="translate(144.033 95.851)"><mask id="L" fill="#fff"><use xlink:href="#K"/></mask><path fill="#1E1E30" mask="url(#L)" d="M-23.927 33.655h65.195v-58.402h-65.195z"/></g><g transform="translate(126.336 78.14)"><mask id="N" fill="#fff"><use xlink:href="#M"/></mask><path fill="#1C1C2D" mask="url(#N)" d="M-24.216 32.673h56.419v-57.049h-56.419z"/></g><g transform="translate(130.5 83.349)"><mask id="P" fill="#fff"><use xlink:href="#O"/></mask><path fill="#4A5477" mask="url(#P)" d="M-24.153 29.454h54.329v-54.045h-54.33z"/></g><g transform="translate(133.623 58.344)"><mask id="R" fill="#fff"><use xlink:href="#Q"/></mask><path fill="#1C1C2D" mask="url(#R)" d="M-24.669 33.859h55.797V-24.26h-55.797z"/></g><g transform="translate(137.787 64.595)"><mask id="T" fill="#fff"><use xlink:href="#S"/></mask><path fill="#4A5477" mask="url(#T)" d="M-24.502 28.822h53.5V-24.53h-53.5z"/></g><g transform="translate(139.87 64.595)"><mask id="V" fill="#fff"><use xlink:href="#U"/></mask><path fill="#1E1E30" mask="url(#V)" d="M-24.503 33.575H34.09v-57.692h-58.594z"/></g><g transform="translate(141.951 70.846)"><mask id="X" fill="#fff"><use xlink:href="#W"/></mask><path fill="#2C2B42" mask="url(#X)" d="M-24.152 56.068h71.467v-79.98h-71.467z"/></g><g transform="translate(131.541 79.181)"><mask id="Z" fill="#fff"><use xlink:href="#Y"/></mask><path fill="#2C2B42" mask="url(#Z)" d="M-23.783 41.849h66.45v-66.47h-66.45z"/></g><g transform="translate(146.115 66.679)"><mask id="ab" fill="#fff"><use xlink:href="#aa"/></mask><path fill="#CFA290" mask="url(#ab)" d="M-24.704 28.398h50.762V-24.42h-50.762z"/></g><g transform="translate(146.115 59.386)"><mask id="ad" fill="#fff"><use xlink:href="#ac"/></mask><path fill="#1C1C2D" mask="url(#ad)" d="M-24.79 40.01h60.753v-63.866h-60.754z"/></g><g transform="translate(147.156 70.846)"><mask id="af" fill="#fff"><use xlink:href="#ae"/></mask><path fill="#4A5477" mask="url(#af)" d="M-24.462 36.211h62.077v-60.44h-62.077z"/></g><g transform="translate(46.179 40.632)"><mask id="ah" fill="#fff"><use xlink:href="#ag"/></mask><path fill="#4A5477" mask="url(#ah)" d="M-23.79 30.926h54.684V-23.87h-54.683z"/></g><g transform="translate(48.26 43.758)"><mask id="aj" fill="#fff"><use xlink:href="#ai"/></mask><path fill="#1C1C2D" mask="url(#aj)" d="M-23.783 31.764h58.17v-56.266h-58.17z"/></g></g></svg>