<?xml version="1.0" encoding="utf-8"?>
<!-- Generator: Adobe Illustrator 19.0.0, SVG Export Plug-In . SVG Version: 6.00 Build 0)  -->
<svg version="1.1" id="Layer_1" xmlns="http://www.w3.org/2000/svg" xmlns:xlink="http://www.w3.org/1999/xlink" x="0px" y="0px"
	 viewBox="0 0 182.7 160.5" style="enable-background:new 0 0 182.7 160.5;" xml:space="preserve">
<style type="text/css">
	.st0{clip-path:url(#SVGID_2_);fill:#333333;}
	.st1{fill-rule:evenodd;clip-rule:evenodd;fill:#FFFFFF;}
	.st2{fill:#FFFFFF;}
	.st3{fill-rule:evenodd;clip-rule:evenodd;fill:#333333;}
	.st4{fill:#333333;}
</style>
<g>
	<g>
		<g>
			<defs>
				<path id="SVGID_1_" d="M18.4,84.6v0.1c0,34.1,20.8,63.4,50.4,75.8h63.6c29.6-12.4,50.4-41.7,50.4-75.8v-0.1
					c0-45.4-36.8-82.2-82.2-82.2C55.2,2.5,18.4,39.2,18.4,84.6"/>
			</defs>
			<clipPath id="SVGID_2_">
				<use xlink:href="#SVGID_1_"  style="overflow:visible;"/>
			</clipPath>
			<path class="st0" d="M48.6,128.9c1.3-1.4,2.7-2.8,3.9-4.3c0.5-0.7,0.7-1.7,0.8-2.5c0.5-3.7,0.9-7.3,1.2-11
				c0.3-2.8,1.5-5.1,3.9-6.3c4.6-2.4,9.2-4.8,14-6.5c11.5-3.9,23.4-5.8,35.3-7.7c1.8-0.3,3.7-0.5,5.5-0.9c0.8-0.2,1.6-0.8,2.3-1.4
				c11-10.1,23-18.6,36.2-25.4c6.3-3.2,13-5.2,20.2-5.6c18-0.9,36-1.2,54-0.2c4.3,0.2,8.5,0.5,12.8,0.7c4.7,0.2,8.1,2.4,10.4,6.4
				c5.6,9.5,9.7,19.7,11.1,30.6c1.1,8.4,1.2,16.9,1.9,25.3c0.1,1.1,0.8,2.1,1.3,3.1c1.2,2,2.5,3.9,3.8,5.8v10.7
				c-1,2.3-2.1,4.5-4.7,5.4c-4.2,1.4-8.5,0.9-12.8,1c3.8-19.2-9.9-33.9-25.8-34.9c-7.7-0.5-14.6,1.8-20.4,7
				c-8.3,7.5-10.9,16.9-8.9,27.8h-71.4c3.9-18.7-9.6-34.1-26.2-34.9c-8.2-0.4-15.4,2.4-21.2,8.2c-7.3,7.4-9.7,16.4-7.6,26.9
				c-2.9-0.2-5.6-0.3-8.3-0.5c-5.3-0.5-9.6-2.5-11.3-8.1V128.9z M190,66.7c-6.2,0.3-12.1,0.4-18.1,0.9c-3.5,0.3-7.1,0.8-10.4,2.1
				c-9.6,3.7-18,9.3-26.2,15.4c-1.3,1-2.3,2.3-1.6,4c0.7,1.7,2.2,2.3,4,2.2c2-0.1,4-0.3,6-0.4c15.1-0.4,30.1-0.7,45.2-1.1
				c0.8,0,1.5-0.1,2.5-0.2C190.9,82.1,190.5,74.6,190,66.7 M203.6,67.1c0.4,7,0.9,14.1,1.3,21.3c0.1,1.2,0.5,1.6,1.7,1.6
				c2-0.1,4,0,6,0.1c7.7,0.1,15.3,0.3,23,0.4c5.3,0.1,7.5-2.1,6.4-7.2c-1-4.5-2.7-8.9-4.2-13.4c-0.5-1.5-1.8-2.1-3.4-2.1
				c-3.6-0.2-7.2-0.5-10.8-0.6C217,67.1,210.4,67.1,203.6,67.1"/>
			<path class="st0" d="M92.6,160.5c-0.9-0.3-1.7-0.6-2.6-0.8c-10.2-2.9-16.9-12.7-15.6-23c1.3-10.5,10-18.7,20.4-18.9
				c10.9-0.3,19.9,7,21.8,17.6c2,11.2-5.2,22-16.4,24.5c-0.5,0.1-1.1,0.3-1.6,0.5H92.6z M105,139.1c-0.1-5.2-4.4-9.4-9.6-9.3
				c-5.1,0.1-9.3,4.4-9.2,9.5c0,5.1,4.3,9.3,9.4,9.3C100.7,148.6,105,144.2,105,139.1"/>
		</g>
		<path class="st1" d="M57.7,79.3c0,1.3-1,2.3-2.3,2.3c-1.3,0-2.3-1-2.3-2.3c0-1.3,1-2.3,2.3-2.3C56.6,77,57.7,78,57.7,79.3"/>
		<path class="st1" d="M65.7,78.9c0,1.3-1,2.3-2.3,2.3c-1.3,0-2.3-1-2.3-2.3c0-1.3,1-2.3,2.3-2.3C64.7,76.6,65.7,77.7,65.7,78.9"/>
		<path class="st1" d="M61.5,86.3c0,1.3-1,2.3-2.3,2.3c-1.3,0-2.3-1-2.3-2.3c0-1.3,1-2.3,2.3-2.3C60.5,84.1,61.5,85.1,61.5,86.3"/>
		<path class="st1" d="M69.6,86.3c0,1.3-1,2.3-2.3,2.3c-1.3,0-2.3-1-2.3-2.3c0-1.3,1-2.3,2.3-2.3C68.6,84,69.6,85,69.6,86.3"/>
		<path class="st1" d="M73.8,78.9c0,1.3-1,2.3-2.3,2.3c-1.3,0-2.3-1-2.3-2.3c0-1.3,1-2.3,2.3-2.3C72.7,76.6,73.8,77.6,73.8,78.9"/>
		<path class="st1" d="M65.4,93.7c0,1.3-1,2.3-2.3,2.3c-1.3,0-2.3-1-2.3-2.3c0-1.3,1-2.3,2.3-2.3C64.4,91.4,65.4,92.4,65.4,93.7"/>
		<path class="st1" d="M18.9,50.9l18.8,10l0-1.9l-1.3-0.7c-1.1-6.8-6.6-5.3-6.6-12.9l-0.1-9.3h-0.8l0-3.3c0-1.2,1-2.2,2.2-2.2
			l16.4-0.1c1.2,0,2.2,1,2.2,2.2l0,3.3l-0.9,0l0.1,9.2c0,7.6-5.5,6.2-6.5,13l-1.4,0.7l0,3.7l1.1,0.6c1.1,0.6,1.5,1.9,0.9,2.9
			l-5.5,10.4c-0.6,1.1-1.9,1.5-2.9,0.9l-11-5.8L10,89.3c-0.5,0.6-1.5,0.8-2.4,0.3l-6.2-3.3c-1-0.5-1.6-1.5-1.2-2.2l9.5-15.9
			c0.5-1.2,0.7-3.3-0.4-4.2c-0.8-0.7-1.2-1.9-0.5-2.7c2-2.6,3.8-4.9,7.3-9.5C16.7,50.9,17.9,50.4,18.9,50.9 M43.8,69.2l-3.3,6l4,2.1
			l0.4,2.2l2.9,1.6l0.8-1.6l-1.2-1.7l0-0.4l0.4-0.7l1.2,0.4l1-1.9l-1-0.8l0.4-0.7l0.4-0.2l2.1,0.1l0.8-1.5l-2.9-1.6l-2,0.8
			L43.8,69.2z"/>
		<path class="st2" d="M96.1,37c-0.9-0.4-1.6-0.7-2.3-1c-2.1-0.9-4.2-1.8-6.3-2.7c-1.6-0.7-2.4-2.2-2.2-3.9c0.2-1.5,1.5-2.8,3.2-3
			c1.5-0.2,3,0.7,3.7,2.2C93.5,31.3,94.8,34.1,96.1,37"/>
		<path class="st2" d="M74.2,10.2c-0.1,0.2-0.2,0.4-0.4,0.6c-0.8,0.8-1.7,1.7-2.5,2.5c-0.4,0.4-0.8,0.4-1.2,0
			c-0.4-0.4-0.9-0.9-1.3-1.3c-0.5-0.5-0.5-0.8,0-1.3c0.8-0.8,1.6-1.6,2.5-2.5c0.5-0.4,0.8-0.5,1.3,0c0.5,0.4,0.9,0.9,1.4,1.4
			C73.9,9.8,74,10,74.2,10.2"/>
		<path class="st2" d="M107.5,7.9c0.2,0.1,0.4,0.2,0.6,0.4c0.9,0.8,1.7,1.7,2.5,2.5c0.4,0.4,0.4,0.8,0,1.2c-0.5,0.5-1,1-1.5,1.5
			c-0.4,0.4-0.8,0.4-1.1,0c-0.9-0.9-1.8-1.8-2.6-2.6c-0.3-0.3-0.4-0.7,0-1.1c0.5-0.5,1-1,1.6-1.5C107.1,8,107.3,8,107.5,7.9"/>
		<path class="st2" d="M98.6,19.1c1,0,1.8,0.8,1.8,1.8c0,1-0.8,1.8-1.8,1.8s-1.8-0.8-1.8-1.8C96.8,19.9,97.6,19.1,98.6,19.1"/>
		<path class="st2" d="M98.6,37c1.3,0,2.4,1,2.4,2.3c0,1.3-1.1,2.4-2.3,2.4c-1.3,0-2.4-1.1-2.4-2.4C96.2,38.1,97.3,37,98.6,37"/>
		<path class="st2" d="M90.7,17.1c0,0.8-0.6,1.3-1.4,1.3c-0.7,0-1.3-0.6-1.3-1.4c0-0.7,0.6-1.4,1.4-1.3
			C90.1,15.7,90.7,16.3,90.7,17.1"/>
		<path class="st2" d="M104.4,30.1c0,1.1-0.9,2-2,2c-1.2,0-2-0.8-2-2c0-1.1,0.9-2,2-2C103.5,28.1,104.4,29,104.4,30.1"/>
		<rect x="72" y="9.6" transform="matrix(0.7071 -0.7071 0.7071 0.7071 12.2612 55.6635)" class="st2" width="2.7" height="6.9"/>
		
			<rect x="104.2" y="9.6" transform="matrix(0.7071 0.7071 -0.7071 0.7071 40.1391 -70.8395)" class="st2" width="2.7" height="6.9"/>
		<path class="st2" d="M89.4,7.4c-10.7,0-19.7,7.4-22.1,17.4c0.8,0.4,1.4,1,1.9,1.9c0.5,0.9,1.4,2.4,2.5,4.2c0-0.2,0-0.4,0-0.6
			c0-9.8,7.9-17.7,17.7-17.7c9.8,0,17.7,7.9,17.7,17.7c0,9.8-7.9,17.7-17.7,17.7c-3.1,0-6.1-0.8-8.6-2.2c1.6,2.6,3.1,5,4.1,6.8
			c0,0,0,0.1,0.1,0.1c1.4,0.3,2.9,0.4,4.5,0.4c12.6,0,22.8-10.2,22.8-22.7C112.1,17.5,101.9,7.4,89.4,7.4"/>
		<path class="st2" d="M89.4,7.4c10.7,0,19.7,7.4,22.1,17.4c-0.8,0.4-1.4,1-1.9,1.9c-0.5,0.9-1.4,2.4-2.5,4.2c0-0.2,0-0.4,0-0.6
			c0-9.8-7.9-17.7-17.7-17.7c-9.8,0-17.7,7.9-17.7,17.7c0,9.8,7.9,17.7,17.7,17.7c3.1,0,6.1-0.8,8.6-2.2c-1.6,2.6-3.1,5-4.1,6.8
			c0,0,0,0.1-0.1,0.1c-1.4,0.3-2.9,0.4-4.5,0.4c-12.6,0-22.8-10.2-22.8-22.7C66.6,17.5,76.8,7.4,89.4,7.4"/>
		<rect x="86.4" y="4" class="st2" width="6" height="7.2"/>
		<path class="st2" d="M92.7,0H86c-1,0-1.8,0.8-1.8,1.8v1.7c0,1,0.8,1.8,1.8,1.8h6.7c1,0,1.8-0.8,1.8-1.8V1.8
			C94.5,0.8,93.7,0,92.7,0"/>
		<path class="st3" d="M58.7,86.1c0,1.3-1,2.3-2.3,2.3c-1.3,0-2.3-1-2.3-2.3c0-1.3,1-2.3,2.3-2.3C57.7,83.8,58.7,84.9,58.7,86.1"/>
		<path class="st3" d="M66.7,85.8c0,1.3-1,2.3-2.3,2.3c-1.3,0-2.3-1-2.3-2.3c0-1.3,1-2.3,2.3-2.3C65.7,83.5,66.7,84.5,66.7,85.8"/>
		<path class="st3" d="M62.5,93.2c0,1.3-1,2.3-2.3,2.3c-1.3,0-2.3-1-2.3-2.3c0-1.3,1-2.3,2.3-2.3C61.5,90.9,62.5,92,62.5,93.2"/>
		<path class="st3" d="M70.6,93.1c0,1.3-1,2.3-2.3,2.3c-1.3,0-2.3-1-2.3-2.3c0-1.3,1-2.3,2.3-2.3C69.6,90.9,70.6,91.9,70.6,93.1"/>
		<path class="st3" d="M74.8,85.8c0,1.3-1,2.3-2.3,2.3c-1.3,0-2.3-1-2.3-2.3c0-1.3,1-2.3,2.3-2.3C73.8,83.5,74.8,84.5,74.8,85.8"/>
		<path class="st3" d="M66.4,100.6c0,1.3-1,2.3-2.3,2.3c-1.3,0-2.3-1-2.3-2.3c0-1.3,1-2.3,2.3-2.3C65.4,98.3,66.4,99.3,66.4,100.6"
			/>
		<path class="st3" d="M20,57.8l18.8,10l0-1.9l-1.3-0.7c-1.1-6.8-6.6-5.3-6.6-12.9l-0.1-9.3h-0.8l0-3.3c0-1.2,1-2.2,2.2-2.2
			l16.4-0.1c1.2,0,2.2,1,2.2,2.2l0,3.3L50,43l0.1,9.2c0,7.6-5.5,6.2-6.5,13l-1.4,0.7l0,3.7l1.1,0.6c1.1,0.6,1.5,1.9,0.9,2.9
			l-5.5,10.4c-0.6,1.1-1.9,1.5-2.9,0.9l-11-5.8L11,96.2c-0.5,0.6-1.5,0.8-2.4,0.3l-6.2-3.3c-1-0.5-1.6-1.5-1.2-2.2L10.6,75
			c0.5-1.2,0.7-3.3-0.4-4.2c-0.8-0.7-1.2-1.9-0.5-2.7c2-2.6,3.8-4.9,7.3-9.5C17.7,57.7,18.9,57.2,20,57.8 M44.8,76l-3.3,6l4,2.1
			l0.4,2.2l2.9,1.6l0.8-1.6l-1.2-1.7l0-0.4l0.4-0.7L50,84l1-1.9l-1-0.8l0.4-0.7l0.4-0.2l2.1,0.1l0.8-1.5l-2.9-1.6l-2,0.8L44.8,76z"
			/>
		<path class="st4" d="M97.1,43.9c-0.9-0.4-1.6-0.7-2.3-1c-2.1-0.9-4.2-1.8-6.3-2.7c-1.6-0.7-2.4-2.2-2.2-3.9c0.2-1.5,1.5-2.8,3.2-3
			c1.5-0.2,3,0.7,3.7,2.2C94.5,38.2,95.8,40.9,97.1,43.9"/>
		<path class="st4" d="M75.2,17.1c-0.1,0.2-0.2,0.4-0.4,0.6c-0.8,0.8-1.7,1.7-2.5,2.5c-0.4,0.4-0.8,0.4-1.2,0
			c-0.4-0.4-0.9-0.9-1.3-1.3c-0.5-0.5-0.5-0.8,0-1.3c0.8-0.8,1.6-1.6,2.5-2.5c0.5-0.4,0.8-0.5,1.3,0c0.5,0.4,0.9,0.9,1.4,1.4
			C75,16.7,75,16.9,75.2,17.1"/>
		<path class="st4" d="M108.5,14.8c0.2,0.1,0.4,0.2,0.6,0.4c0.9,0.8,1.7,1.7,2.5,2.5c0.4,0.4,0.4,0.8,0,1.2c-0.5,0.5-1,1-1.5,1.5
			c-0.4,0.4-0.8,0.4-1.1,0c-0.9-0.9-1.8-1.8-2.6-2.6c-0.3-0.3-0.4-0.7,0-1.1c0.5-0.5,1-1,1.6-1.5C108.1,14.9,108.3,14.9,108.5,14.8"
			/>
		<path class="st4" d="M99.6,26c1,0,1.8,0.8,1.8,1.8c0,1-0.8,1.8-1.8,1.8s-1.8-0.8-1.8-1.8C97.8,26.8,98.6,26,99.6,26"/>
		<path class="st4" d="M99.6,43.9c1.3,0,2.4,1,2.4,2.3c0,1.3-1.1,2.4-2.3,2.4c-1.3,0-2.4-1.1-2.4-2.4C97.2,44.9,98.3,43.9,99.6,43.9
			"/>
		<path class="st4" d="M91.7,24c0,0.8-0.6,1.3-1.4,1.3c-0.7,0-1.3-0.6-1.3-1.4c0-0.7,0.6-1.4,1.4-1.3C91.2,22.6,91.7,23.2,91.7,24"
			/>
		<path class="st4" d="M105.5,37c0,1.1-0.9,2-2,2c-1.2,0-2-0.8-2-2c0-1.1,0.9-2,2-2C104.5,35,105.5,35.9,105.5,37"/>
		<rect x="73" y="16.5" transform="matrix(0.7071 -0.7071 0.7071 0.7071 7.7034 58.4006)" class="st4" width="2.7" height="6.9"/>
		
			<rect x="105.2" y="16.5" transform="matrix(0.7071 0.7071 -0.7071 0.7071 45.2973 -69.5521)" class="st4" width="2.7" height="6.9"/>
		<path class="st4" d="M90.4,14.2c-10.7,0-19.7,7.4-22.1,17.4c0.8,0.4,1.4,1,1.9,1.9c0.5,0.9,1.4,2.4,2.5,4.2c0-0.2,0-0.4,0-0.6
			c0-9.8,7.9-17.7,17.7-17.7c9.8,0,17.7,7.9,17.7,17.7c0,9.8-7.9,17.7-17.7,17.7c-3.1,0-6.1-0.8-8.6-2.2c1.6,2.6,3.1,5,4.1,6.8
			c0,0,0,0.1,0.1,0.1c1.4,0.3,2.9,0.4,4.5,0.4c12.6,0,22.8-10.2,22.8-22.7C113.1,24.4,103,14.2,90.4,14.2"/>
		<path class="st4" d="M90.4,14.2c10.7,0,19.7,7.4,22.1,17.4c-0.8,0.4-1.4,1-1.9,1.9c-0.5,0.9-1.4,2.4-2.5,4.2c0-0.2,0-0.4,0-0.6
			c0-9.8-7.9-17.7-17.7-17.7c-9.8,0-17.7,7.9-17.7,17.7c0,9.8,7.9,17.7,17.7,17.7c3.1,0,6.1-0.8,8.6-2.2c-1.6,2.6-3.1,5-4.1,6.8
			c0,0,0,0.1-0.1,0.1c-1.4,0.3-2.9,0.4-4.5,0.4c-12.6,0-22.8-10.2-22.8-22.7C67.7,24.4,77.8,14.2,90.4,14.2"/>
		<rect x="87.4" y="10.9" class="st4" width="6" height="7.2"/>
		<path class="st4" d="M93.7,6.9H87c-1,0-1.8,0.8-1.8,1.8v1.7c0,1,0.8,1.8,1.8,1.8h6.7c1,0,1.8-0.8,1.8-1.8V8.7
			C95.6,7.7,94.8,6.9,93.7,6.9"/>
	</g>
</g>
</svg>
